<svg width="50" height="50" viewBox="0 0 50 50" fill="none" xmlns="http://www.w3.org/2000/svg">
<g filter="url(#filter0_ii)">
<path d="M18.7174 31.5752C19.5929 31.5752 20.3609 31.4018 21.0217 31.0549C21.6989 30.708 22.2192 30.2455 22.5826 29.6674C22.9625 29.0728 23.235 28.4451 23.4002 27.7844C23.5819 27.1237 23.6728 26.4299 23.6728 25.7031C23.6728 24.0844 23.2763 22.7051 22.4835 21.5654C21.6906 20.4092 20.5261 19.831 18.99 19.831H16.0167V31.5752H18.7174Z" fill="url(#paint0_linear)"/>
<path d="M29.7596 31.0549C30.4203 31.4018 31.1884 31.5752 32.0638 31.5752H34.7645V19.831H31.7913C30.2551 19.831 29.0906 20.4092 28.2978 21.5654C27.5049 22.7051 27.1085 24.0844 27.1085 25.7031C27.1085 26.4299 27.1993 27.1237 27.381 27.7844C27.5462 28.4451 27.8188 29.0728 28.1987 29.6674C28.5621 30.2455 29.0824 30.708 29.7596 31.0549Z" fill="url(#paint1_linear)"/>
<path fill-rule="evenodd" clip-rule="evenodd" d="M50 25C50 38.8071 38.8071 50 25 50C11.1929 50 0 38.8071 0 25C0 11.1929 11.1929 0 25 0C38.8071 0 50 11.1929 50 25ZM13.0435 17.0312H18.3953C19.5681 17.0312 20.6335 17.1964 21.5915 17.5268C22.5496 17.8571 23.3424 18.2949 23.9701 18.84C24.5286 19.325 25.0021 19.895 25.3906 20.5501C25.7791 19.895 26.2526 19.325 26.8112 18.84C27.4388 18.2949 28.2317 17.8571 29.1897 17.5268C30.1478 17.1964 31.2132 17.0312 32.3859 17.0312H37.7377V34.375H32.485C31.2627 34.375 30.1643 34.2016 29.1897 33.8547C28.1987 33.5078 27.3893 33.0536 26.7616 32.492C26.2266 31.9992 25.7696 31.4405 25.3906 30.8157C25.0116 31.4405 24.5546 31.9992 24.0196 32.492C23.392 33.0536 22.5826 33.5078 21.5915 33.8547C20.617 34.2016 19.5185 34.375 18.2962 34.375H13.0435V17.0312Z" fill="url(#paint2_linear)"/>
</g>
<defs>
<filter id="filter0_ii" x="-5" y="-5" width="60" height="60" filterUnits="userSpaceOnUse" color-interpolation-filters="sRGB">
<feFlood flood-opacity="0" result="BackgroundImageFix"/>
<feBlend mode="normal" in="SourceGraphic" in2="BackgroundImageFix" result="shape"/>
<feColorMatrix in="SourceAlpha" type="matrix" values="0 0 0 0 0 0 0 0 0 0 0 0 0 0 0 0 0 0 127 0" result="hardAlpha"/>
<feOffset dx="-5" dy="-5"/>
<feGaussianBlur stdDeviation="5"/>
<feComposite in2="hardAlpha" operator="arithmetic" k2="-1" k3="1"/>
<feColorMatrix type="matrix" values="0 0 0 0 1 0 0 0 0 1 0 0 0 0 1 0 0 0 0.1 0"/>
<feBlend mode="normal" in2="shape" result="effect1_innerShadow"/>
<feColorMatrix in="SourceAlpha" type="matrix" values="0 0 0 0 0 0 0 0 0 0 0 0 0 0 0 0 0 0 127 0" result="hardAlpha"/>
<feOffset dx="5" dy="5"/>
<feGaussianBlur stdDeviation="5"/>
<feComposite in2="hardAlpha" operator="arithmetic" k2="-1" k3="1"/>
<feColorMatrix type="matrix" values="0 0 0 0 1 0 0 0 0 1 0 0 0 0 1 0 0 0 0.1 0"/>
<feBlend mode="normal" in2="effect1_innerShadow" result="effect2_innerShadow"/>
</filter>
<linearGradient id="paint0_linear" x1="50" y1="50" x2="0" y2="0" gradientUnits="userSpaceOnUse">
<stop stop-color="#5936FF"/>
<stop offset="1" stop-color="#866CFF"/>
</linearGradient>
<linearGradient id="paint1_linear" x1="50" y1="50" x2="0" y2="0" gradientUnits="userSpaceOnUse">
<stop stop-color="#5936FF"/>
<stop offset="1" stop-color="#866CFF"/>
</linearGradient>
<linearGradient id="paint2_linear" x1="50" y1="50" x2="0" y2="0" gradientUnits="userSpaceOnUse">
<stop stop-color="#5936FF"/>
<stop offset="1" stop-color="#866CFF"/>
</linearGradient>
</defs>
</svg>
